<?xml version="1.0"?>
<svg xmlns="http://www.w3.org/2000/svg" viewBox="0 0 16 16" width="25" height="25">
    <path style="line-height:normal;text-indent:0;text-align:start;text-decoration-line:none;text-decoration-style:solid;text-decoration-color:#000;text-transform:none;block-progression:tb;isolation:auto;mix-blend-mode:normal" d="M 7.5 1.0351562 C 3.9166377 1.0351562 1 3.9425935 1 7.5175781 L 1 8 L 2 8 L 2 7.5175781 C 2 4.4845628 4.4553623 2.0351562 7.5 2.0351562 C 9.1400754 2.0351562 10.599378 2.7561047 11.605469 3.8867188 L 10.464844 5.0253906 L 14 5.0253906 L 14 1.5 L 12.314453 3.1816406 C 11.12431 1.8681381 9.4111823 1.0351563 7.5 1.0351562 z M 7.0117188 4 L 7.0117188 5 L 6.5 5 C 5.6774686 5 5 5.6774686 5 6.5 C 5 7.3225314 5.6774686 8 6.5 8 L 7.25 8 L 7.75 8 L 8.5 8 C 8.7814686 8 9 8.2185314 9 8.5 C 9 8.7814686 8.7814686 9 8.5 9 L 6.5 9 L 5 9 L 5 10 L 6.5 10 L 7.0117188 10 L 7.0117188 11 L 8.0117188 11 L 8.0117188 10 L 8.5 10 C 9.3225314 10 10 9.3225314 10 8.5 C 10 7.6774686 9.3225314 7 8.5 7 L 7.75 7 L 7.25 7 L 6.5 7 C 6.2185314 7 6 6.7814686 6 6.5 C 6 6.2185314 6.2185314 6 6.5 6 L 9 6 L 9 5 L 8.0117188 5 L 8.0117188 4 L 7.0117188 4 z M 13 7 L 13 7.5 C 13 10.543833 10.543833 13 7.5 13 C 5.8593105 13 4.4008982 12.275907 3.3945312 11.140625 L 4.5351562 10 L 1 10 L 1 13.535156 L 2.6875 11.847656 C 3.8773847 13.16409 5.5889943 14 7.5 14 C 11.084167 14 14 11.084167 14 7.5 L 14 7 L 13 7 z" font-weight="400" font-family="sans-serif" white-space="normal" overflow="visible"/>
</svg>
